# xmcd
#
# Track frame offsets:
#	150
#	4276
#	8044
#	12880
#	17438
#	25502
#	33333
#	38364
#	42933
#
# Disc length: 638 seconds
#
# Revision: 1
# Processed by: cddbd v1.4PL0 Copyright (c) Steve Scherf et al.
# Submitted via: audiograbber 1.82.01
#
DISCID=4e027c09
DTITLE=Steve Haggerty and The Wanted - Promotion
DYEAR=2003
DGENRE=Country
TTITLE0=Ghostriders
TTITLE1=I feel lucky
TTITLE2=It`s five o`clock
TTITLE3=Jackson
TTITLE4=Picture
TTITLE5=Ring of fire - Standing on a rock
TTITLE6=Six days on the road
TTITLE7=That`s what I like about you
TTITLE8=Tenessee plates
EXTD=1 minute promotion only - www.The-Wanted.net
EXTT0=
EXTT1=
EXTT2=
EXTT3=
EXTT4=
EXTT5=
EXTT6=
EXTT7=
EXTT8=
PLAYORDER=
